<svg xmlns="http://www.w3.org/2000/svg" viewBox="0 0 285.87 281.14"><defs><style>.cls-1{fill:#3099cc;}</style></defs><g id="Capa_2" data-name="Capa 2"><g id="Capa_1-2" data-name="Capa 1"><path class="cls-1" d="M224,40.74c-2.07-3.57-2.42-5.18.34-8.27A135.07,135.07,0,0,0,236,16.91c2.26-3.42,4.57-4.6,8.18-2.39,3.16,3.54,6.76,6.35,11.77,6.27,4.73-.07,7.86-4.39,5.69-7.78-1.22-1.91-5.46-4.4-9.07-7.08-9.34-7.15-18.12-8-24.4.86-3.27,4.61-6.34,9.36-9.8,13.82-3.81,4.92-5.82,5.16-10.91,1.73a58.8,58.8,0,0,0-31.22-9.91c-12.22-.49-23.81,1.7-34.46,8-1.79,1.06-4,3.13-5.87,1.44-8.35-7.62-19.07-7.91-29.15-9C92.86,11.3,79.57,14,68.11,22.92c-4.56,3.56-7.57,2.56-10.89-2.44C53.72,15.23,50,10.14,46.27,5,43.23.81,39.21-.78,34.05.36,20.07,3.44,2.72,21.06.73,35.16c-2,14.41-.07,28.28,8.68,40.45,4.47,6.2,9.09,12.32,14.12,18.06,2.84,3.23,2.13,5.57-.2,8.21-5.39,6.1-8,13.49-9,21.3-2.75,21.79-.5,43.15,7.75,63.58a67.79,67.79,0,0,0,22.2,28.92c2.73,2.4,5.5,4.78,8.21,7.22,4.68,4.23,10.12,7.69,13.6,13.12a108.19,108.19,0,0,0,21.48,24.11c30.58,26.06,73.51,28.07,106.17,4.93,9.33-6.61,16.52-14.85,20.49-25.73,3.76-10.29,9.42-19,18.48-25.78,19.79-14.86,29-35.63,31.18-59.85a91.08,91.08,0,0,0-2.68-32c-1.68-6.26-3.26-12.55-7.1-17.81-5-6.83-5.19-6.89.43-13.35,7.24-8.31,14.57-16.75,17.88-27.39,1.78-5.72,4-10.24,8.55-14.35,6-5.43,6.25-13.41,2-20.52-4-6.8-11.29-10-18.58-8.27a17.34,17.34,0,0,0-13.55,16c-.41,6.87,2.85,12.15,8,16.38,1.48,1.22,3,2.29,2.1,4.49-3.93,10-9.49,18.87-18.64,26.11-3.65-14-8.55-27-16.24-38.74m-7.54,9a.85.85,0,0,1,0,.69A.85.85,0,0,0,218.54,53.21Zm-201.68,9c-9.08-19.68-3.19-37.53,15.86-47.8,2.53-1.36,4.58-1.52,6.2,1.47,3.67,6.75,8.8,12.43,13.74,18.23,1,1.21,2.47,2.2.94,4.21A100.69,100.69,0,0,0,41.33,60a222.82,222.82,0,0,0-7.89,23.3C26.47,76.94,20.64,70.42,16.86,62.26ZM92.11,243c-2.61.54-4.8.39-6.36-2.29-1.43-2.47-3-4.47-1.21-7.67,8.25-15,16.31-30.06,24.3-45.18,1.22-2.31,2.25-2.17,4.15-1,9.88,6,17.14,14.6,23.55,24a9.51,9.51,0,0,1,.88,2.6,22,22,0,0,1-7.61,13.78c-9.31,8.06-20.3,12.59-32.3,14.88C95.72,242.44,93.9,242.62,92.11,243Zm10.38,11.47c4.38-2.1,9.1-3.17,13.57-4.74a63.41,63.41,0,0,0,25.57-16.66c1.23-1.29,2.06-3.07,4.18-.73,10.07,11.14,23.19,16.92,37.3,20.9.62.18,1.22.42,1.87.64C171.89,272.75,119.86,273.14,102.49,254.46ZM197,243.06c-16-2.34-31-7.11-42.09-19.61-6.49-7.33-5.45-11.23-.55-17.18,5.63-6.83,11.36-13.47,18.8-18.48,2.89-1.94,4.34-1.65,6,1.53,7.93,14.8,16.1,29.46,24.15,44.2C205.59,237.59,201.87,243.12,197,243.06Zm50.43-64.33c-2.82-4-5.88-4.21-8.92-1.46-1.82,1.65-3.91,3.5-2.48,6.39,1.55,3.11,4.32,2.36,7.7,1.44-1.42,3.84-3.73,6.37-5.77,9-7.36,9.4-17,16.37-26.11,23.84-1.86,1.52-2.68.9-3.75-.89-13.81-23-25-47.09-31.07-73.36-.88-3.8-1.24-7.71-2-12.9,9.45,6.79,18.07,6.3,26.76,1.37s13.78-12.31,16.22-21.75a11.54,11.54,0,0,0,.45-4.89c-.59-3.15-1.88-4.91-5.83-3.3-13.11,5.33-25.36,12.39-38.05,18.54s-12.73,6.29-11.07,20.42a90.39,90.39,0,0,0,5.24,21.25c1.48,3.95.1,6.17-3.42,7.33-14.95,4.94-29.9,5.1-44.72-.56-2.66-1-2.61-3.52-2-5.91.86-3.37,1.77-6.73,2.65-10.09h0c1.91-7.08,2.7-14.35,3.5-21.61.42-3.82-.81-6.13-4.85-7.26-6.3-1.75-12-5.32-17.61-8.35-9.2-4.92-18.46-9.65-27.93-14-3.45-1.57-6,.37-5.74,4.11a34.31,34.31,0,0,0,.9,4.9c4,17.94,27,33.06,41.89,20.76.13-.11.56.15,1.11.32-1.27,11-4.4,21.65-7.82,32.2a406.59,406.59,0,0,1-28.89,58.89c-2,3.34-3.12,3.14-5.73.92-6.84-5.82-13.9-11.38-20.87-17A73.52,73.52,0,0,1,27.6,171.34c-3.73-14.12-3.73-28.46-3-42.87.06-1.34-.35-2.72,2-3.18,6.34-1.23,9.11-9.27,4.75-14-1.61-1.75-1.45-2.5-.15-3.85.35-.36.57-.85.94-1.16C41.94,98.34,45.93,87.47,49,75.67c3.18-12.1,9.23-23.08,16.9-33.11C82.05,21.48,109.74,20.5,129.7,32.45a36.92,36.92,0,0,1,3.76,3.25c3.13,2.52,6.2,2.83,9.38-.06,15.12-13.78,46.63-16.74,64.8,4,2.52,2.88,4.83,5.92,7.23,8.89h0q1.27,2,2.53,4h0l1,1.74a234.74,234.74,0,0,1,12.12,34.17,38.13,38.13,0,0,0,9.27,16.88c1.53,1.57,2.93,2.61,0,4.79-3.9,2.88-2.69,10.95,1.48,13.58,2.32,1.47,4.15.9,7.82-2.49C257,140.33,254.43,159.09,247.44,178.73Zm20.39-134.3c-3.88,0-6.81-3.29-6.71-7.49a7.47,7.47,0,0,1,7.27-7.36,7.78,7.78,0,0,1,7.22,7.53C275.64,41.26,272.25,44.45,267.83,44.43Z"/><path class="cls-1" d="M128.14,103.67A103.87,103.87,0,0,0,94,85.56C89,84,83.73,83,79.12,81.83c-4,.39-6.29,2.08-6.76,5.51-.58,4.25,1.76,6.56,5.72,7.35,17.37,3.49,33.37,9.78,46.42,22.32,2.83,2.72,5.83,2.64,8.71-.34s2.5-5.93-.24-8.71A56.26,56.26,0,0,0,128.14,103.67Z"/><path class="cls-1" d="M205.44,82.47c-.49,0-.82.06-1.15.1-20.55,2.92-37.62,13-53.15,26.08-2.91,2.45-2.75,5.48-.21,8.32,3.18,3.56,5.63,3.69,9.74-.18A79.34,79.34,0,0,1,192.78,98.6c4.6-1.39,9.34-2.3,14-3.58,3.57-1,6-3.18,5.29-7.21C211.42,84.2,208.92,82.5,205.44,82.47Z"/><path class="cls-1" d="M240.66,137.48c-3.06,2.89-4.06,6.7-4.38,11.23.44,3.27,1.08,7.13,5.32,8.16,4,1,5.88-2.36,7.61-5.14A12.76,12.76,0,0,0,250,139.4C248.21,135.33,243.88,134.42,240.66,137.48Z"/><path class="cls-1" d="M50.74,108.49a19.63,19.63,0,0,0,12.61-6.15c1.52-1.51,2.88-3.37,1.75-5.75a5.62,5.62,0,0,0-5.25-3.17A16.63,16.63,0,0,0,46,99.76c-1.3,1.62-2,3.43-.89,5.5A5.61,5.61,0,0,0,50.74,108.49Z"/><path class="cls-1" d="M45.91,155c-.15-5.81-4-10.76-8.31-10.62-3.89.12-6.25,3.21-6.18,8.06.09,5.34,4.49,10.65,8.7,10.5C43.63,162.76,46,159.47,45.91,155Z"/><path class="cls-1" d="M138.78,43.25c-3.14.38-6.26.88-9.4,1.19-1.61.15-3,.55-3.68,2.09-.77,1.74,0,3.29,1.13,4.57,2.53,2.8,5.92,3.51,9.88,3.69a29.93,29.93,0,0,0,4-.66c3.45-1,6.46-2.77,5.55-6.94C145.46,43.31,142.18,42.84,138.78,43.25Z"/><path class="cls-1" d="M223.8,162.16c-3.89-.35-12.41,5.88-12.51,9.15-.11,3.88,2.43,5.12,5.33,5.49,5.75.35,11.37-4.39,11.39-9.43C228,164.64,226.94,162.44,223.8,162.16Z"/><path class="cls-1" d="M55.5,165.24c-3.3,0-4.94,1.77-4.85,5,.13,4.74,5.54,9.28,11.35,9.16,2.61-.25,5.5-1,5.69-4.93S60.83,165.25,55.5,165.24Z"/><path class="cls-1" d="M161.7,70.58a3.82,3.82,0,0,0,2.8-4.19c-.25-2.28-1.72-3.4-3.84-4-3.65-1-6.84.23-10,1.83-2.07,1-3.77,2.58-3.19,5,.66,2.76,3.13,3.59,6,4.1C156.08,72.5,158.92,71.62,161.7,70.58Z"/><path class="cls-1" d="M182.29,54.88a9.17,9.17,0,0,0,6,1.76c2.93.17,5.66,0,6.47-3.35s-1.6-4.81-4.07-5.94a16.4,16.4,0,0,0-5.19-1.58c-2.57-.22-5.23.45-6.28,3C178,51.68,180.21,53.42,182.29,54.88Z"/><path class="cls-1" d="M159.59,47.75c2.29.27,4.6.42,6.9.63,2.63.32,4.6-.52,5.24-3.29.61-2.61-1.07-3.84-3.08-5a10.16,10.16,0,0,0-9.92-.29c-1.72.84-3.22,2-3,4.09A4,4,0,0,0,159.59,47.75Z"/><path class="cls-1" d="M108.42,49.53c3.22,1.27,6.2.39,9.15-.84,1.71-.7,3.62-1.58,3.55-3.7-.07-1.8-1.79-2.71-3.33-3.38-1.35-.59-2.78-1-4.17-1.47-1.89.51-3.68.89-5.39,1.48-2,.69-3.67,2-3.5,4.29C104.88,47.93,106.62,48.82,108.42,49.53Z"/><path class="cls-1" d="M42.1,181.31c-2.77,0-3.86,1.41-3.73,4,.14,3.71,4.49,8,8.29,7.84,2.76-.1,4.81-1.45,4.78-4.52C51.41,185.15,46.23,181.26,42.1,181.31Z"/><path class="cls-1" d="M87,59.17c4.26,0,8.48-3.56,8.66-7.12C95.83,49,94,48,91.3,48c-4,0-8.49,3.76-8.52,7C82.75,58,84.76,59,87,59.17Z"/><path class="cls-1" d="M111.76,62.49c0,2.89,1.64,4.63,4.55,4.82,3.49.23,7.92-3.7,7.83-7-.08-2.83-1.8-4.08-4.52-4.13C116.05,56.14,111.81,59.36,111.76,62.49Z"/></g></g></svg>