<?xml version="1.0" encoding="utf-8"?>
<!-- Generator: Adobe Illustrator 26.0.0, SVG Export Plug-In . SVG Version: 6.00 Build 0)  -->
<svg version="1.1" id="Capa_1" xmlns="http://www.w3.org/2000/svg" xmlns:xlink="http://www.w3.org/1999/xlink" x="0px" y="0px"
	 viewBox="0 0 1440 288" style="enable-background:new 0 0 1440 288;" xml:space="preserve">
<style type="text/css">
	.st0{fill:#477961;}
</style>
<path class="st0" d="M240,64c71.3,3,160,43,240,42.7C560,107,640,85,720,69.3C800,53,880,43,960,53.3c80,10.7,160,42.7,240,69.4
	c75.2,24.3,124.3,26.5,181.2,26.8l58.8-0.3V288h-40c-40,0-120,0-200,0s-160,0-240,0s-160,0-240,0s-160,0-240,0s-160,0-240,0
	s-160,0-200,0H0V56"/>
</svg>
