<?xml version="1.0" standalone="no"?><svg xmlns="http://www.w3.org/2000/svg" viewBox="0 0 1440 320"><path fill="#477961" fill-opacity="1" d="M0,32L40,42.7C80,53,160,75,240,96C320,117,400,139,480,138.7C560,139,640,117,720,101.3C800,85,880,75,960,85.3C1040,96,1120,128,1200,154.7C1280,181,1360,203,1400,213.3L1440,224L1440,320L1400,320C1360,320,1280,320,1200,320C1120,320,1040,320,960,320C880,320,800,320,720,320C640,320,560,320,480,320C400,320,320,320,240,320C160,320,80,320,40,320L0,320Z" data-darkreader-inline-fill="" style="--darkreader-inline-fill: #39614e;"></path></svg>